<svg width="24" height="24" viewBox="0 0 24 24" fill="none" xmlns="http://www.w3.org/2000/svg">
<path d="M16.9965 9.013H17.0045M17.0045 7.009V4.505M7.50248 22H4.71848C4.39548 22 4.07048 21.954 3.77348 21.827C2.80748 21.412 2.31648 20.863 2.08848 20.52C2.0266 20.425 1.9962 20.3129 2.00159 20.1997C2.00697 20.0864 2.04787 19.9777 2.11848 19.889C3.23848 18.401 5.83448 17.503 7.50248 17.503M7.50748 22H10.2905C10.6145 22 10.9385 21.954 11.2355 21.827C12.2025 21.412 12.6925 20.863 12.9215 20.52C12.9834 20.425 13.0138 20.3129 13.0084 20.1997C13.003 20.0864 12.9621 19.9777 12.8915 19.889C11.7715 18.401 9.17548 17.503 7.50748 17.503M22.0005 6.792C22.0005 9.438 19.7605 11.584 16.9965 11.584C16.6711 11.584 16.3485 11.554 16.0285 11.494C15.7985 11.451 15.6845 11.43 15.6035 11.442C15.5235 11.454 15.4095 11.514 15.1835 11.636C14.5361 11.9811 13.7911 12.0971 13.0695 11.965C13.3435 11.627 13.5295 11.222 13.6125 10.788C13.6625 10.523 13.5385 10.265 13.3525 10.076C12.484 9.20339 11.9952 8.02314 11.9925 6.792C11.9925 4.146 14.2325 2 16.9965 2C19.7605 2 22.0005 4.146 22.0005 6.792ZM10.2855 12.289C10.2844 13.0249 9.99121 13.7303 9.47029 14.2501C8.94937 14.7698 8.24338 15.0615 7.50748 15.061C7.14293 15.0615 6.78185 14.9902 6.44485 14.8512C6.10785 14.7122 5.80153 14.5082 5.54338 14.2508C5.28523 13.9934 5.08031 13.6876 4.94032 13.351C4.80033 13.0144 4.72801 12.6535 4.72748 12.289C4.72788 11.9244 4.8001 11.5634 4.94004 11.2267C5.07997 10.89 5.28487 10.5841 5.54303 10.3266C5.80119 10.0691 6.10755 9.86496 6.44462 9.72587C6.78168 9.58679 7.14285 9.51547 7.50748 9.516C8.24355 9.51547 8.9497 9.80729 9.47064 10.3273C9.99159 10.8473 10.2847 11.5529 10.2855 12.289Z" stroke="#6B7280" stroke-width="2" stroke-linecap="round" stroke-linejoin="round"/>
</svg>
