<svg width="95" height="40" viewBox="0 0 95 40" fill="none" xmlns="http://www.w3.org/2000/svg">
<circle cx="20" cy="20" r="20" fill="#8571EC"/>
<g clip-path="url(#clip0_24255_3240)">
<path d="M20.4631 9.72949C20.5888 9.72949 20.7123 9.76233 20.8214 9.82476L29.0953 14.6019C29.2043 14.6648 29.2948 14.7553 29.3577 14.8643C29.4206 14.9733 29.4537 15.097 29.4536 15.2229L28.1662 15.6366L20.4631 11.2732L12.9058 15.6366V24.3634L20.4631 28.7267L28.0205 24.3634L29.3577 25.1356C29.2948 25.2446 29.2043 25.3351 29.0953 25.3981L20.8214 30.1752C20.7123 30.2376 20.5888 30.2704 20.4631 30.2704C20.3375 30.2704 20.2139 30.2376 20.1049 30.1752L11.8309 25.3981C11.7219 25.3351 11.6314 25.2446 11.5685 25.1356C11.5056 25.0266 11.4726 24.9029 11.4727 24.7771V15.2229C11.4726 15.097 11.5056 14.9733 11.5685 14.8643C11.6314 14.7553 11.7219 14.6648 11.8309 14.6019L20.1049 9.82476C20.2139 9.76233 20.3375 9.72949 20.4631 9.72949Z" fill="white"/>
<path d="M27.81 15.8354L20.4652 11.6479L13.2548 15.8802L13.2324 24.143L20.4428 28.3304L27.4965 24.2326" stroke="#C3A278" stroke-width="0.145333"/>
<g clip-path="url(#clip1_24255_3240)">
<path d="M25.1645 17.2273C25.0171 17.0799 24.7785 17.0801 24.6313 17.2273C24.5431 17.3154 24.4354 17.3779 24.2953 17.4244L22.8335 15.9625C22.88 15.8224 22.9434 15.7164 23.032 15.6279C23.1791 15.4807 23.1793 15.2422 23.032 15.0949C22.8846 14.9475 22.6461 14.9476 22.4988 15.0949C22.1073 15.4864 21.9932 15.9715 21.9713 16.8721C21.9701 16.9224 21.979 16.9724 21.9974 17.0191C22.0158 17.0659 22.0433 17.1086 22.0784 17.1445C22.1135 17.1806 22.1555 17.2092 22.2018 17.2288C22.2481 17.2483 22.2979 17.2584 22.3482 17.2585H22.3831C22.5706 17.2585 22.723 17.1072 22.7244 16.9197L23.3381 17.5334C23.1573 17.5368 22.9589 17.5377 22.7232 17.5356L21.9681 17.5253C21.0346 17.5105 19.6449 17.4215 18.7647 18.3016C18.1852 18.8812 18.0154 19.745 17.9801 20.6398C17.9782 20.69 17.9864 20.7401 18.0042 20.7871C18.0221 20.8341 18.0492 20.877 18.084 20.9133C18.1189 20.9496 18.1607 20.9785 18.2069 20.9982C18.2532 21.0179 18.3029 21.0281 18.3532 21.0282H18.3614C18.5629 21.0282 18.7276 20.8685 18.7343 20.6671C18.7401 20.494 18.7514 20.3251 18.7699 20.1621L20.098 21.4904C19.6413 21.5391 19.1627 21.5216 18.7441 21.5153L17.99 21.5048C16.4913 21.4896 16.0469 21.5468 15.5597 22.034C15.4125 22.1812 15.4123 22.4198 15.5597 22.5671C15.707 22.7145 15.9456 22.7144 16.0928 22.5671C16.1897 22.4702 16.2889 22.4024 16.4312 22.355L17.892 23.8157C17.8444 23.9568 17.7811 24.0775 17.6921 24.1665C17.5449 24.3136 17.5448 24.5523 17.6921 24.6996C17.8395 24.8469 18.078 24.8468 18.2252 24.6996C18.628 24.2969 18.742 23.6495 18.762 22.9198C18.7633 22.8699 18.7547 22.8203 18.7366 22.7738C18.7184 22.7273 18.6912 22.685 18.6564 22.6492C18.6216 22.6134 18.58 22.585 18.5341 22.5655C18.4881 22.5461 18.4388 22.536 18.3889 22.536H18.3463C18.1623 22.536 18.0125 22.6841 18.0106 22.8682L17.4004 22.258C17.5736 22.2561 17.7706 22.2566 18.0003 22.259L18.7546 22.2693C19.6921 22.2836 21.0799 22.3723 21.9577 21.4945C22.5731 20.8792 22.7231 19.8167 22.7409 18.9475C22.7453 18.7359 22.576 18.5612 22.3643 18.5612C22.1604 18.5612 21.9921 18.7237 21.9892 18.9277C21.9869 19.0852 21.9791 19.4373 21.9594 19.6199C21.5672 19.2278 21.106 18.7665 20.6422 18.3027C21.095 18.2558 21.5674 18.273 21.9791 18.2794L22.7337 18.2899C24.052 18.3021 24.6819 18.243 25.1645 17.7604C25.3116 17.6131 25.3117 17.3746 25.1645 17.2273ZM21.7475 20.4743C21.6625 20.666 21.5567 20.8293 21.4244 20.9615C21.288 21.0979 21.1249 21.1964 20.9493 21.2755L18.9825 19.3086C19.0622 19.13 19.1635 18.969 19.2977 18.8348C19.4379 18.6946 19.6058 18.5935 19.7866 18.5134C20.4421 19.1688 21.1975 19.9243 21.7475 20.4743Z" fill="white"/>
</g>
</g>
<path d="M58.7381 12.068H62.2901C62.6261 12.068 62.7941 12.236 62.7941 12.572V26.996C62.7941 27.332 62.6261 27.5 62.2901 27.5H60.3221C59.9861 27.5 59.8181 27.332 59.8181 26.996V15.62H59.7221L57.2741 23.66C57.1781 23.98 56.9781 24.14 56.6741 24.14H54.6581C54.3541 24.14 54.1541 23.98 54.0581 23.66L51.5621 15.596H51.4661V26.996C51.4661 27.188 51.4341 27.324 51.3701 27.404C51.3061 27.468 51.1701 27.5 50.9621 27.5H48.9941C48.6581 27.5 48.4901 27.332 48.4901 26.996V12.572C48.4901 12.236 48.6581 12.068 48.9941 12.068H52.5701C52.7941 12.068 52.9461 12.18 53.0261 12.404L55.5701 20.876H55.7141L58.2821 12.404C58.3301 12.18 58.4821 12.068 58.7381 12.068ZM67.5121 27.5H65.2081C64.9201 27.5 64.8241 27.332 64.9201 26.996L68.7121 12.572C68.8241 12.236 69.0641 12.068 69.4321 12.068H72.6241C73.0241 12.068 73.2641 12.236 73.3441 12.572L77.1361 26.996C77.2321 27.332 77.1361 27.5 76.8481 27.5H74.5441C74.3681 27.5 74.2481 27.468 74.1841 27.404C74.1201 27.324 74.0721 27.188 74.0401 26.996L73.3681 24.356H68.6881L68.0161 26.996C67.9841 27.188 67.9281 27.324 67.8481 27.404C67.7841 27.468 67.6721 27.5 67.5121 27.5ZM70.9921 14.972L69.2641 21.908H72.8161L71.0881 14.972H70.9921ZM87.6635 27.5H79.7675C79.4315 27.5 79.2635 27.332 79.2635 26.996V12.572C79.2635 12.236 79.4315 12.068 79.7675 12.068H81.8075C82.1435 12.068 82.3115 12.236 82.3115 12.572V24.572C82.3115 24.748 82.4075 24.836 82.5995 24.836H87.6635C87.9835 24.836 88.1435 25.012 88.1435 25.364V26.996C88.1435 27.332 87.9835 27.5 87.6635 27.5ZM93.2127 12.572V26.996C93.2127 27.332 93.0447 27.5 92.7087 27.5H90.6687C90.3327 27.5 90.1647 27.332 90.1647 26.996V12.572C90.1647 12.236 90.3327 12.068 90.6687 12.068H92.7087C93.0447 12.068 93.2127 12.236 93.2127 12.572Z" fill="white"/>
<defs>
<clipPath id="clip0_24255_3240">
<rect width="22.93" height="22.93" fill="white" transform="translate(9 8.53516)"/>
</clipPath>
<clipPath id="clip1_24255_3240">
<rect width="9.82567" height="9.82567" fill="white" transform="translate(15.4492 14.9844)"/>
</clipPath>
</defs>
</svg>
