<svg width="24" height="24" viewBox="0 0 24 24" fill="none" xmlns="http://www.w3.org/2000/svg">
<path d="M4 9.75C4 7.46667 4.80433 5.60433 6.413 4.163C8.02167 2.72167 9.884 2.00067 12 2C14.116 1.99933 15.9787 2.741 17.588 4.225C19.1973 5.709 20.0013 7.70067 20 10.2L21.4 8.8C21.5833 8.61667 21.8167 8.525 22.1 8.525C22.3833 8.525 22.6167 8.61667 22.8 8.8C22.9833 8.98333 23.075 9.21667 23.075 9.5C23.075 9.78333 22.9833 10.0167 22.8 10.2L19.7 13.3C19.5 13.5 19.2667 13.6 19 13.6C18.7333 13.6 18.5 13.5 18.3 13.3L15.2 10.2C15.0167 10.0167 14.925 9.78333 14.925 9.5C14.925 9.21667 15.0167 8.98333 15.2 8.8C15.3833 8.61667 15.6167 8.525 15.9 8.525C16.1833 8.525 16.4167 8.61667 16.6 8.8L18 10.2C18 8.38333 17.421 6.896 16.263 5.738C15.105 4.58 13.684 4.00067 12 4C10.316 3.99933 8.89533 4.55767 7.738 5.675C6.58067 6.79233 6.00133 8.159 6 9.775C6 11.1583 6.49167 12.6333 7.475 14.2C8.45833 15.7667 9.96667 17.4833 12 19.35C12.3333 19.05 12.6417 18.7583 12.925 18.475L13.775 17.625C13.6917 17.4417 13.625 17.2583 13.575 17.075C13.525 16.8917 13.5 16.7 13.5 16.5C13.5 15.8 13.7417 15.2083 14.225 14.725C14.7083 14.2417 15.3 14 16 14C16.7 14 17.2917 14.2417 17.775 14.725C18.2583 15.2083 18.5 15.8 18.5 16.5C18.5 17.2 18.2583 17.7917 17.775 18.275C17.2917 18.7583 16.7 19 16 19C15.8667 19 15.7457 18.9917 15.637 18.975C15.5283 18.9583 15.416 18.9333 15.3 18.9C15 19.2167 14.6873 19.5293 14.362 19.838C14.0367 20.1467 13.6993 20.4673 13.35 20.8C13.1667 20.9833 12.9543 21.1167 12.713 21.2C12.4717 21.2833 12.234 21.325 12 21.325C11.766 21.325 11.5287 21.2833 11.288 21.2C11.0473 21.1167 10.8347 20.9833 10.65 20.8C8.36667 18.7167 6.68767 16.7793 5.613 14.988C4.53833 13.1967 4.00067 11.4507 4 9.75Z" fill="#6B7280"/>
</svg>
