<svg width="22" height="20" viewBox="0 0 22 20" fill="none" xmlns="http://www.w3.org/2000/svg">
<path d="M15.748 4.87652C16.0682 4.79393 16.404 4.75 16.75 4.75C18.9591 4.75 20.75 6.54086 20.75 8.75C20.75 10.9591 18.9591 12.75 16.75 12.75C16.3951 12.75 16.0509 12.7038 15.7233 12.617M15.748 4.87652C15.7493 4.83451 15.75 4.79233 15.75 4.75C15.75 2.54086 13.9591 0.75 11.75 0.75C9.83239 0.75 8.22994 2.09939 7.84041 3.90043M15.748 4.87652C15.7269 5.55763 15.5354 6.19584 15.2149 6.75M15.7233 12.617C15.7409 12.4972 15.75 12.3747 15.75 12.25C15.75 11.0405 14.8911 10.0316 13.75 9.80001M15.7233 12.617C15.5457 13.8237 14.506 14.75 13.25 14.75H12.75C10.5409 14.75 8.75 16.5409 8.75 18.75M7.84041 3.90043C7.49377 3.80243 7.12801 3.75 6.75 3.75C4.54086 3.75 2.75 5.54086 2.75 7.75C2.75 8.13862 2.80542 8.51429 2.90878 8.86954M7.84041 3.90043C8.85146 4.18625 9.69983 4.85965 10.2149 5.75M2.90878 8.86954C1.6614 9.23322 0.75 10.3852 0.75 11.75C0.75 13.4069 2.09315 14.75 3.75 14.75C5.05622 14.75 6.16746 13.9152 6.57929 12.75M2.90878 8.86954C2.99921 9.18032 3.12632 9.47547 3.28513 9.75" stroke="#024C99" stroke-width="1.5" stroke-linecap="round" stroke-linejoin="round"/>
<path d="M10.5861 9.49345C10.0757 9.98534 9.20305 10.0702 8.45713 9.65082C7.7112 9.23142 7.33031 8.44173 7.48535 7.75" stroke="#024C99" stroke-width="1.5" stroke-linecap="round"/>
</svg>
