<svg width="22" height="21" viewBox="0 0 22 21" fill="none" xmlns="http://www.w3.org/2000/svg">
<path d="M15.3627 13.9137C12.7296 15.3968 11.2273 18.47 10.75 19.3291V5.8291C11.1645 5.08306 12.352 2.94557 14.3817 1.49279C15.2368 0.880768 15.6643 0.574758 16.2072 0.853786C16.75 1.13281 16.75 1.74873 16.75 2.98056V11.8205C16.75 12.4859 16.75 12.8187 16.6134 13.0524C16.4767 13.2862 16.1054 13.4954 15.3627 13.9137L15.3627 13.9137Z" stroke="#FF6900" stroke-width="1.5" stroke-linecap="round" stroke-linejoin="round"/>
<path d="M10.75 5.63466C10.0631 4.91313 8.07175 3.1995 4.73056 2.59868C3.0379 2.2943 2.19157 2.14211 1.47078 2.72543C0.75 3.30875 0.75 4.25598 0.75 6.15043V12.9588C0.75 14.691 0.75 15.5571 1.2126 16.0978C1.6752 16.6386 2.69365 16.8217 4.73056 17.188C6.54633 17.5145 7.96344 18.0348 8.98918 18.5576C9.99838 19.0719 10.503 19.3291 10.75 19.3291C10.997 19.3291 11.5016 19.0719 12.5108 18.5576C13.5366 18.0348 14.9537 17.5145 16.7694 17.188C18.8064 16.8217 19.8248 16.6386 20.2874 16.0978C20.75 15.5571 20.75 14.691 20.75 12.9588V6.15043C20.75 4.25598 20.75 3.30875 20.0292 2.72543C19.3084 2.14211 17.75 2.59868 16.75 3.3291" stroke="#FF6900" stroke-width="1.5" stroke-linecap="round" stroke-linejoin="round"/>
</svg>
